<?xml version="1.0" encoding="UTF-8" standalone="no"?>
<svg width="81px" height="72px" viewBox="0 0 81 72" version="1.1" xmlns="http://www.w3.org/2000/svg" xmlns:xlink="http://www.w3.org/1999/xlink">
    <defs></defs>
    <g id="Page-1" stroke="none" stroke-width="1" fill="none" fill-rule="evenodd">
        <g>
            <path d="M19.4032836,17.3814944 L14.4297015,17.3814944 L12.4886716,29.9150616 C11.9667612,33.2296138 12.9137761,34.8395392 15.3760149,34.7925392 L17.6951493,34.7925392 L18.1693582,37.2540765 L15.8018209,37.2540765 C8.79531343,37.2540765 7.04228358,35.2660467 8.08470149,29.2991512 L9.93173134,17.3821959 L5.88201493,17.3821959 L7.17767164,14.7880765 L10.3105373,14.7880765 L11.3052537,8.65633026 L12.6317761,8.65633026 C14.762209,8.65633026 15.6615224,9.6489422 15.3297164,11.5920765 L14.8099104,14.7880765 L20.6821045,14.7880765 L19.4032836,17.3814944 L19.4032836,17.3814944 Z M46.3258657,34.6557482 L46.3258657,12.6618526 C46.3258657,5.23865862 42.9187164,0.791897424 34.3955821,0.791897424 L12.2291194,0.791897424 C4.80732836,0.791897424 0.293925373,5.37544966 0.293925373,12.8224944 L0.339522388,34.5722706 C0.339522388,41.9961661 3.70598507,46.5993601 12.2291194,46.5993601 L19.932209,46.5993601 L36.4741045,21.4108676 C36.9483134,20.6055541 37.409194,19.9910467 37.5038955,19.4691362 C37.739597,18.0970168 37.1117612,17.3850019 35.2661343,17.3850019 L21.5351194,17.3850019 L22.8139403,14.7824646 L35.6449403,14.7824646 C39.668,14.7824646 42.5581493,16.4400915 42.0376418,19.6585392 C41.8475373,20.7956586 41.2316269,22.1214795 40.2853134,23.6374049 L26.2210896,44.7067332 C25.4718955,45.8459571 25.0145224,46.3636586 24.3361791,46.6000616 L35.1630149,46.6000616 C43.0681343,46.5986586 46.3258657,41.9463601 46.3258657,34.6557482 L46.3258657,34.6557482 L46.3258657,34.6557482 Z" id="Shape" fill="#F7941E"></path>
            <path d="M35.5161816,40.4051539 C31.0172106,52.2167793 36.8692302,65.4659419 48.5894506,70 L53.7986676,56.3185904 C50.7268578,55.1286522 48.5463992,52.129786 48.5463992,48.6149638 C48.5463992,44.0568496 52.2128874,40.3617668 56.7357284,40.3617668 C61.2585693,40.3617668 64.9250575,44.0568496 64.9250575,48.6149638 C64.9250575,52.129786 62.7445989,55.1286522 59.6727892,56.3185904 L64.8820061,70 C70.8963184,67.6733173 75.6465961,62.885991 77.9552752,56.8247737 C78.9169668,54.2999428 79.4056954,51.7092069 79.465245,49.1518225 C79.6842797,39.7452905 74.0969342,30.7899731 64.8820061,27.2251068 C62.1350801,26.1624359 59.3088952,25.6715203 56.5348219,25.6969155 C47.4728486,25.7798702 38.9607068,31.3618775 35.5161816,40.4051539 L35.5161816,40.4051539 Z" id="path2830" stroke="#F7941E" stroke-width="3" fill="#FFFFFF"></path>
        </g>
    </g>
</svg>